<svg width="252" height="418" viewBox="0 0 252 418" fill="none" xmlns="http://www.w3.org/2000/svg">
<path d="M198.802 1.03908H187.366C187.892 2.32771 188.092 3.72583 187.951 5.11026C187.808 6.49471 187.328 7.82297 186.551 8.97806C185.775 10.1332 184.726 11.0796 183.497 11.734C182.267 12.3885 180.896 12.7309 179.503 12.731H129.312C127.919 12.7309 126.549 12.3885 125.32 11.734C124.091 11.0796 123.042 10.1332 122.265 8.97807C121.488 7.82297 121.008 6.4947 120.865 5.11026C120.723 3.72582 120.924 2.32769 121.45 1.03906H110.769C106.028 1.03906 101.481 2.92105 98.1297 6.27102C94.7781 9.621 92.8945 14.1645 92.8945 18.9021V245.301C92.8945 247.647 93.3567 249.97 94.2551 252.137C95.1536 254.305 96.4703 256.274 98.1297 257.933C99.7891 259.591 101.76 260.907 103.929 261.805C106.097 262.702 108.421 263.164 110.769 263.164H198.802C201.149 263.164 203.473 262.702 205.643 261.805C207.811 260.907 209.781 259.591 211.441 257.933C213.101 256.274 214.417 254.305 215.315 252.137C216.214 249.97 216.676 247.647 216.676 245.301V18.9021C216.676 16.5563 216.214 14.2334 215.315 12.0662C214.417 9.89899 213.101 7.92978 211.441 6.27104C209.781 4.6123 207.811 3.29652 205.643 2.39881C203.473 1.50111 201.149 1.03907 198.802 1.03908Z" fill="white"/>
<path d="M198.847 265.246H110.717C105.716 265.241 100.92 263.245 97.3836 259.698C93.8468 256.152 91.8565 251.343 91.8516 246.328V18.9185C91.8565 13.9028 93.8468 9.09413 97.3836 5.54745C100.92 2.00077 105.716 0.00573083 110.717 0H122.858L122.312 1.34433C121.845 2.49054 121.668 3.73414 121.793 4.96558C121.919 6.19702 122.346 7.3785 123.034 8.40594C123.723 9.43338 124.652 10.2752 125.742 10.8573C126.832 11.4395 128.047 11.744 129.282 11.744H179.528C180.763 11.7439 181.978 11.4394 183.067 10.8572C184.157 10.275 185.086 9.4332 185.775 8.40579C186.464 7.37838 186.89 6.19694 187.016 4.96553C187.142 3.73413 186.964 2.49055 186.498 1.34433L185.951 0H198.847C203.849 0.00568959 208.644 2.00071 212.181 5.5474C215.719 9.0941 217.708 13.9028 217.713 18.9185V246.328C217.708 251.343 215.718 256.152 212.181 259.698C208.644 263.246 203.849 265.241 198.847 265.246ZM110.717 1.95158C106.231 1.95672 101.931 3.74595 98.7587 6.92677C95.5868 10.1076 93.8029 14.4202 93.797 18.9185V246.328C93.8029 250.826 95.5868 255.138 98.7587 258.319C101.931 261.5 106.231 263.29 110.717 263.295H198.847C203.334 263.29 207.634 261.5 210.806 258.319C213.978 255.139 215.763 250.826 215.768 246.328V18.9186C215.763 14.4202 213.978 10.1076 210.806 6.92675C207.634 3.74593 203.334 1.95671 198.847 1.95161H188.735C189.073 3.34941 189.091 4.80609 188.786 6.21177C188.481 7.61745 187.863 8.93543 186.976 10.0663C186.089 11.1972 184.958 12.1115 183.668 12.7402C182.378 13.3688 180.962 13.6956 179.528 13.6957H129.282C127.847 13.6951 126.432 13.3681 125.142 12.7392C123.851 12.1103 122.721 11.1961 121.834 10.0653C120.948 8.93455 120.33 7.61678 120.024 6.21131C119.719 4.80585 119.737 3.34936 120.075 1.95161L110.717 1.95158Z" fill="#E4E4E4"/>
<path d="M199.929 35.3655H173.084C172.782 35.3655 172.492 35.2559 172.279 35.0609C172.065 34.8658 171.945 34.6012 171.945 34.3253C171.945 34.0494 172.065 33.7849 172.279 33.5898C172.492 33.3947 172.782 33.2852 173.084 33.2852H199.929C200.079 33.2849 200.227 33.3115 200.365 33.3637C200.504 33.4158 200.63 33.4924 200.736 33.5891C200.842 33.6857 200.926 33.8005 200.984 33.9267C201.04 34.0531 201.07 34.1886 201.07 34.3253C201.07 34.4621 201.04 34.5975 200.984 34.7239C200.926 34.8503 200.842 34.965 200.736 35.0616C200.63 35.1582 200.504 35.2348 200.365 35.287C200.227 35.3392 200.079 35.3658 199.929 35.3655Z" fill="#6C63FF"/>
<path d="M199.929 40.5686H173.084C172.782 40.5686 172.492 40.459 172.279 40.2639C172.065 40.0689 171.945 39.8043 171.945 39.5284C171.945 39.2526 172.065 38.9881 172.279 38.793C172.492 38.5978 172.782 38.4883 173.084 38.4883H199.929C200.079 38.488 200.227 38.5147 200.365 38.5669C200.504 38.619 200.63 38.6956 200.736 38.7922C200.842 38.8888 200.926 39.0036 200.984 39.1299C201.04 39.2562 201.07 39.3917 201.07 39.5284C201.07 39.6652 201.04 39.8007 200.984 39.927C200.926 40.0533 200.842 40.1681 200.736 40.2648C200.63 40.3614 200.504 40.4379 200.365 40.49C200.227 40.5422 200.079 40.5689 199.929 40.5686Z" fill="#6C63FF"/>
<path d="M199.929 45.7679H173.084C172.782 45.7679 172.492 45.6583 172.279 45.4632C172.065 45.2682 171.945 45.0036 171.945 44.7277C171.945 44.4518 172.065 44.1873 172.279 43.9922C172.492 43.7972 172.782 43.6875 173.084 43.6875H199.929C200.079 43.6872 200.227 43.7139 200.365 43.7661C200.504 43.8183 200.63 43.8948 200.736 43.9915C200.842 44.0881 200.926 44.2028 200.984 44.3292C201.04 44.4555 201.07 44.5909 201.07 44.7277C201.07 44.8645 201.04 44.9999 200.984 45.1263C200.926 45.2526 200.842 45.3674 200.736 45.464C200.63 45.5606 200.504 45.6372 200.365 45.6893C200.227 45.7414 200.079 45.7681 199.929 45.7679Z" fill="#6C63FF"/>
<path d="M64.8091 260.046L69.0378 260.045L71.0497 242.363H64.8086L64.8091 260.046Z" fill="#FFB6B6"/>
<path d="M63.7695 257.966L72.6637 257.965H72.6641C74.1673 257.966 75.6089 258.602 76.6718 259.735C77.7348 260.87 78.3319 262.406 78.332 264.009V264.206H63.7697L63.7695 257.966Z" fill="#2F2E41"/>
<path d="M48.1641 255.447L52.2025 256.925L59.606 241.424L53.6456 239.242L48.1641 255.447Z" fill="#FFB6B6"/>
<path d="M47.0467 253.805L55.7 256.771H55.7004C57.1628 257.272 58.3609 258.319 59.031 259.681C59.7013 261.042 59.7886 262.608 59.274 264.032L59.2109 264.206L45.043 259.35L47.0467 253.805Z" fill="#2F2E41"/>
<path d="M44.6357 160.188L41.9258 163.125L52.8795 208.507L64.1336 252.763H73.1311L67.9562 210.53V167.096L44.6357 160.188Z" fill="#2F2E41"/>
<path d="M72.9604 163.473L74.1685 167.869L67.7125 207.067L58.5449 248.603H48.1641L55.9578 197.674L65.4811 160.188L72.9604 163.473Z" fill="#2F2E41"/>
<path d="M78.9654 98.1017L74.8913 90.9943L65.2267 89.457C60.4093 90.6951 56.0969 93.3357 52.8685 97.0243C49.6402 100.713 47.6503 105.273 47.166 110.092L41.9258 162.248C41.9258 162.248 68.7389 174.241 74.4244 167.489L82.331 108.289C82.6438 106.453 82.5015 104.571 81.9162 102.799C81.3309 101.028 80.3193 99.4175 78.9654 98.1017Z" fill="#3F3D56"/>
<path d="M72.6082 87.3739C78.0658 87.3739 82.49 82.7168 82.49 76.972C82.49 71.2273 78.0658 66.5703 72.6082 66.5703C67.1507 66.5703 62.7266 71.2273 62.7266 76.972C62.7266 82.7168 67.1507 87.3739 72.6082 87.3739Z" fill="#FFB6B6"/>
<path d="M84.882 72.0689C84.2613 71.8998 83.7317 71.5034 83.4044 70.9626C83.1821 70.6008 83.0638 70.1876 83.0617 69.766C83.0597 69.3445 83.1741 68.9302 83.3929 68.5664C82.9291 68.332 82.419 68.1974 81.8971 68.1716C81.3751 68.1457 80.8537 68.2293 80.3677 68.4166C80.7783 68.0677 81.0979 67.629 81.3005 67.1364C81.503 66.6438 81.5827 66.1115 81.5328 65.5832C80.3229 65.9819 79.1129 66.3806 77.9031 66.7792C78.3419 66.4524 78.6657 66.0009 78.8297 65.4872C78.9938 64.9735 78.9899 64.4228 78.8186 63.9113C77.8255 65.2888 75.7688 65.4738 74.0925 65.0629C72.4162 64.6521 70.8675 63.7901 69.1596 63.5307C68.2121 63.3868 67.2444 63.4339 66.3163 63.6691C65.3883 63.9043 64.5197 64.3226 63.7645 64.8982C63.0094 65.4736 62.3837 66.194 61.9261 67.0146C61.4686 67.8352 61.1891 68.7386 61.1048 69.6686C60.6643 69.7231 60.2451 69.8856 59.8869 70.1411C59.5285 70.3966 59.2428 70.7366 59.0566 71.1291C58.6934 71.9194 58.528 72.7824 58.5739 73.6472C58.6041 75.7107 59.1203 77.7399 60.0828 79.5786C61.0452 81.4174 62.4281 83.0165 64.1252 84.2528L64.6824 84.0662C64.6184 82.9503 64.9984 81.8533 65.7436 81.0033C66.4888 80.1532 67.5418 79.6154 68.6837 79.5018C70.1627 79.4115 71.909 79.9881 72.9645 78.9755C73.9302 78.049 73.5847 76.3905 74.3727 75.3165C75.0582 74.3823 76.4219 74.1645 77.5783 74.3882C78.7349 74.612 79.7872 75.1823 80.9104 75.5317C82.0337 75.8811 83.3493 75.9794 84.3149 75.3206C84.7136 75.0087 85.036 74.6145 85.2589 74.1664C85.4818 73.7184 85.5996 73.2276 85.6037 72.7298C85.615 72.5284 85.6133 72.3266 85.5986 72.1256C85.3582 72.1382 85.1173 72.1191 84.882 72.0689Z" fill="#2F2E41"/>
<path d="M120.977 164.348H19.0391V194.513H120.977V164.348Z" fill="white"/>
<path d="M122.018 195.554H18V163.309H122.018V195.554ZM19.8575 193.65H120.16V165.214H19.8574L19.8575 193.65Z" fill="#E4E4E4"/>
<path d="M100.921 174.749H38.0556C37.702 174.749 37.3631 174.585 37.1131 174.292C36.8631 174 36.7227 173.603 36.7227 173.189C36.7227 172.775 36.8631 172.379 37.1131 172.086C37.3631 171.793 37.702 171.629 38.0556 171.629H100.921C101.275 171.629 101.614 171.793 101.864 172.086C102.113 172.379 102.254 172.775 102.254 173.189C102.254 173.603 102.113 174 101.864 174.292C101.614 174.585 101.275 174.749 100.921 174.749Z" fill="#6C63FF"/>
<path d="M100.923 180.992H38.0533C37.7001 180.99 37.3617 180.826 37.1122 180.533C36.8628 180.241 36.7227 179.845 36.7227 179.431C36.7227 179.018 36.8628 178.621 37.1122 178.329C37.3617 178.036 37.7001 177.872 38.0533 177.871H100.923C101.276 177.872 101.616 178.036 101.865 178.329C102.114 178.621 102.254 179.018 102.254 179.431C102.254 179.845 102.114 180.241 101.865 180.533C101.616 180.826 101.276 180.99 100.923 180.992Z" fill="#6C63FF"/>
<path d="M74.9352 186.194H38.037C37.6884 186.194 37.3541 186.084 37.1077 185.89C36.8612 185.694 36.7227 185.429 36.7227 185.153C36.7227 184.877 36.8612 184.613 37.1077 184.417C37.3541 184.223 37.6884 184.113 38.037 184.113H74.9352C75.2837 184.113 75.618 184.223 75.8645 184.417C76.111 184.613 76.2494 184.877 76.2494 185.153C76.2494 185.429 76.111 185.694 75.8645 185.89C75.618 186.084 75.2837 186.194 74.9352 186.194Z" fill="#6C63FF"/>
<path d="M79.9325 168.544C79.5656 168.169 79.2754 167.709 79.0824 167.193C78.8896 166.678 78.7985 166.12 78.8158 165.561C78.8332 165 78.9585 164.452 79.1828 163.954C79.4072 163.455 79.7251 163.017 80.1144 162.674L76.25 149.785L82.2819 151.569L85.0268 163.535C85.4931 164.316 85.6908 165.262 85.5827 166.198C85.4746 167.133 85.0681 167.99 84.4401 168.608C83.8122 169.225 83.0065 169.56 82.1757 169.548C81.345 169.537 80.5468 169.179 79.9325 168.544Z" fill="#FFB6B6"/>
<path d="M76.2087 160.187L69.5532 135.184L68.9704 104.721C68.941 103.475 69.3106 102.251 70.024 101.237C70.7373 100.222 71.7557 99.4699 72.9258 99.0939C73.8016 98.8081 74.7324 98.7418 75.6388 98.9009C76.5451 99.0599 77.4002 99.4395 78.1309 100.007C78.8616 100.575 79.4463 101.314 79.835 102.161C80.2237 103.008 80.4049 103.938 80.3631 104.872L79.2911 128.841L84.5714 157.453L76.2087 160.187Z" fill="#3F3D56"/>
<path d="M55.3769 169.584C54.9691 169.209 54.6467 168.748 54.4323 168.232C54.2179 167.717 54.1168 167.159 54.1361 166.6C54.1553 166.041 54.2945 165.492 54.5438 164.993C54.793 164.495 55.1464 164.057 55.5789 163.713L51.2852 150.824L57.9873 152.609L61.0371 164.574C61.5552 165.355 61.775 166.303 61.6549 167.238C61.5347 168.172 61.0829 169.03 60.3852 169.647C59.6875 170.265 58.7923 170.6 57.8692 170.587C56.9461 170.576 56.0594 170.219 55.3769 169.584Z" fill="#FFB6B6"/>
<path d="M51.0622 159.148L48.1641 133.267L52.2143 102.835C52.3174 102.061 52.5745 101.315 52.9702 100.642C53.3659 99.9691 53.8922 99.3824 54.5177 98.9182C55.1434 98.4538 55.8555 98.1205 56.6118 97.9382C57.368 97.7559 58.1531 97.7282 58.9202 97.8569C59.6874 97.9857 60.4209 98.268 61.0772 98.6874C61.7336 99.1066 62.2995 99.6547 62.741 100.298C63.1826 100.941 63.4909 101.667 63.6477 102.433C63.8044 103.198 63.8064 103.988 63.6536 104.754L58.93 128.437L59.8915 157.726L51.0622 159.148Z" fill="#3F3D56"/>
<path d="M251.001 248.602H115.777V212.195H251.001V248.602Z" fill="white"/>
<path d="M138.107 225.719C137.703 225.719 137.316 225.829 137.029 226.024C136.743 226.219 136.582 226.483 136.582 226.759C136.582 227.035 136.743 227.299 137.029 227.494C137.316 227.689 137.703 227.799 138.107 227.799H249.478C249.883 227.798 250.27 227.688 250.555 227.493C250.841 227.299 251.002 227.034 251.002 226.759C251.002 226.484 250.841 226.219 250.555 226.024C250.27 225.829 249.883 225.719 249.478 225.719H138.107Z" fill="#E6E6E6"/>
<path d="M138.119 234.039C137.712 234.038 137.322 234.201 137.034 234.494C136.746 234.786 136.583 235.183 136.582 235.596C136.581 236.01 136.743 236.407 137.03 236.701C137.317 236.993 137.706 237.159 138.112 237.16H208.898C209.1 237.161 209.3 237.12 209.486 237.042C209.673 236.964 209.842 236.849 209.985 236.704C210.128 236.559 210.241 236.387 210.317 236.198C210.395 236.008 210.435 235.804 210.435 235.599C210.435 235.394 210.395 235.191 210.317 235.001C210.241 234.813 210.128 234.64 209.985 234.495C209.842 234.35 209.673 234.235 209.486 234.157C209.3 234.079 209.1 234.038 208.898 234.039H138.119Z" fill="#E6E6E6"/>
<path d="M251.001 248.602H115.777V212.195H251.001V248.602ZM118 246.001H248.778V214.796H118V246.001Z" fill="#E5E5E5"/>
<path d="M202.113 64.4922H107.457V136.265H202.113V64.4922Z" fill="white"/>
<path d="M203.152 137.302H105.375V63.4492H203.152V137.302ZM107.87 134.826H200.657V65.9247H107.87V134.826Z" fill="#E4E4E4"/>
<path d="M201.072 66.5703H108.496L201.072 136.262V66.5703Z" fill="#F0F0F0"/>
<g filter="url(#filter0_i)">
<path d="M134.289 389.304C144.324 389.304 152.458 381.177 152.458 371.152C152.458 361.127 144.324 353 134.289 353C124.255 353 116.121 361.127 116.121 371.152C116.121 381.177 124.255 389.304 134.289 389.304Z" fill="#3478DB"/>
</g>
<path d="M139.108 369.942H135.493V366.33C135.493 365.886 135.134 365.527 134.69 365.527H133.887C133.443 365.527 133.083 365.886 133.083 366.33V369.942H129.467C129.025 369.942 128.664 370.302 128.664 370.744V371.548C128.664 371.99 129.025 372.35 129.467 372.35H133.083V375.962C133.083 376.405 133.443 376.764 133.887 376.764H134.69C135.134 376.764 135.493 376.405 135.493 375.962V372.35H139.108C139.552 372.35 139.911 371.99 139.911 371.548V370.744C139.911 370.302 139.552 369.942 139.108 369.942Z" fill="#F9F6F6"/>
<path d="M16.3823 377.018C16.1746 379.216 15.3628 380.932 13.9469 382.167C12.5309 383.394 10.6478 384.007 8.29731 384.007C6.65482 384.007 5.20587 383.62 3.95043 382.846C2.70441 382.064 1.74158 380.955 1.06194 379.522C0.382297 378.089 0.0283091 376.424 0 374.529V372.605C0 370.662 0.34454 368.95 1.03362 367.469C1.7227 365.989 2.70913 364.847 3.9929 364.046C5.28611 363.244 6.7775 362.844 8.46717 362.844C10.7421 362.844 12.5733 363.461 13.9611 364.697C15.3486 365.932 16.1557 367.677 16.3823 369.931H12.8141C12.6442 368.45 12.2099 367.385 11.5114 366.734C10.8223 366.074 9.80758 365.744 8.46717 365.744C6.90972 365.744 5.71088 366.314 4.87078 367.456C4.04009 368.587 3.61532 370.251 3.59644 372.449V374.274C3.59644 376.499 3.9929 378.198 4.78581 379.367C5.58818 380.535 6.75862 381.12 8.29731 381.12C9.70378 381.12 10.761 380.805 11.4689 380.173C12.1769 379.541 12.6254 378.489 12.8141 377.018H16.3823Z" fill="white"/>
<path d="M22.9251 383.725H19.4844V361.996H22.9251V383.725Z" fill="white"/>
<path d="M30.3445 383.726H26.9038V368.419H30.3445V383.726ZM26.6914 364.444C26.6914 363.916 26.8565 363.478 27.1869 363.128C27.5267 362.779 28.0082 362.605 28.6313 362.605C29.2542 362.605 29.7356 362.779 30.0755 363.128C30.4153 363.478 30.5851 363.916 30.5851 364.444C30.5851 364.962 30.4153 365.397 30.0755 365.746C29.7356 366.085 29.2542 366.254 28.6313 366.254C28.0082 366.254 27.5267 366.085 27.1869 365.746C26.8565 365.397 26.6914 364.962 26.6914 364.444Z" fill="white"/>
<path d="M40.395 381.264C41.2541 381.264 41.9667 381.015 42.533 380.514C43.0994 380.015 43.4015 379.397 43.4393 378.661H46.6818C46.644 379.614 46.3467 380.505 45.7897 381.336C45.2327 382.156 44.4776 382.806 43.5242 383.287C42.5709 383.768 41.542 384.009 40.4375 384.009C38.2947 384.009 36.5956 383.315 35.3401 381.929C34.0848 380.543 33.457 378.629 33.457 376.186V375.832C33.457 373.503 34.0801 371.64 35.326 370.245C36.572 368.839 38.2712 368.137 40.4233 368.137C42.2452 368.137 43.7272 368.67 44.8693 369.735C46.021 370.791 46.625 372.183 46.6818 373.908H43.4393C43.4015 373.031 43.0994 372.31 42.533 371.744C41.9762 371.178 41.2635 370.895 40.395 370.895C39.2812 370.895 38.4221 371.301 37.8181 372.112C37.2139 372.914 36.9071 374.135 36.8977 375.775V376.328C36.8977 377.988 37.1951 379.227 37.7898 380.048C38.3938 380.859 39.2623 381.264 40.395 381.264Z" fill="white"/>
<path d="M54.259 377.16L52.7297 378.73V383.725H49.2891V361.996H52.7297V374.529L53.8059 373.186L58.0395 368.418H62.174L56.4819 374.798L62.7829 383.725H58.8041L54.259 377.16Z" fill="white"/>
<path d="M75.9611 364.695V368.416H78.6655V370.963H75.9611V379.507C75.9611 380.092 76.0743 380.516 76.3009 380.78C76.5368 381.035 76.9521 381.161 77.5469 381.161C77.9433 381.161 78.3446 381.114 78.7504 381.02V383.68C77.967 383.897 77.2118 384.005 76.4849 384.005C73.8418 384.005 72.5204 382.548 72.5204 379.634V370.963H70V368.416H72.5204V364.695H75.9611Z" fill="white"/>
<path d="M84.6985 370.087C85.8219 368.786 87.2425 368.135 88.9605 368.135C92.2265 368.135 93.8831 369.997 93.9303 373.722V383.725H90.4896V373.85C90.4896 372.794 90.2584 372.049 89.7958 371.615C89.3428 371.172 88.6726 370.95 87.7852 370.95C86.407 370.95 85.3781 371.563 84.6985 372.79V383.725H81.2578V361.996H84.6985V370.087Z" fill="white"/>
<path d="M104.166 384.009C101.986 384.009 100.216 383.324 98.8568 381.957C97.507 380.58 96.832 378.751 96.832 376.469V376.045C96.832 374.516 97.1247 373.154 97.7098 371.956C98.3046 370.748 99.1353 369.81 100.202 369.141C101.269 368.471 102.458 368.137 103.77 368.137C105.856 368.137 107.466 368.801 108.598 370.131C109.741 371.461 110.311 373.342 110.311 375.775V377.162H100.301C100.405 378.425 100.825 379.425 101.561 380.161C102.307 380.897 103.241 381.264 104.365 381.264C105.941 381.264 107.225 380.627 108.216 379.355L110.071 381.122C109.458 382.038 108.636 382.75 107.607 383.259C106.588 383.759 105.441 384.009 104.166 384.009ZM103.756 370.895C102.812 370.895 102.047 371.225 101.462 371.885C100.886 372.545 100.518 373.465 100.358 374.644H106.913V374.389C106.838 373.239 106.531 372.371 105.993 371.787C105.455 371.192 104.709 370.895 103.756 370.895Z" fill="white"/>
<path d="M13.7638 409.894C13.7638 412.272 13.2304 414.163 12.1637 415.568C11.1065 416.973 9.64817 417.676 7.78853 417.676C5.99507 417.676 4.59803 417.029 3.59744 415.737L3.42753 417.393H0.3125V395.664H3.75319V403.558C4.74434 402.388 6.08002 401.803 7.76022 401.803C9.62929 401.803 11.0971 402.496 12.1637 403.883C13.2304 405.269 13.7638 407.208 13.7638 409.697V409.894ZM10.3231 409.598C10.3231 407.938 10.0305 406.693 9.44517 405.863C8.86 405.034 8.01039 404.618 6.89656 404.618C5.4051 404.618 4.35732 405.269 3.75319 406.57V412.88C4.36676 414.21 5.42398 414.874 6.92487 414.874C8.00096 414.874 8.83158 414.474 9.41686 413.672C10.0021 412.87 10.3042 411.659 10.3231 410.036V409.598Z" fill="white"/>
<path d="M25.9374 415.897C24.9274 417.085 23.4926 417.679 21.633 417.679C19.9716 417.679 18.7115 417.193 17.8525 416.221C17.0029 415.251 16.5781 413.845 16.5781 412.006V402.09H20.0188V411.964C20.0188 413.907 20.826 414.878 22.44 414.878C24.1108 414.878 25.2389 414.279 25.8241 413.081V402.09H29.2648V417.397H26.0224L25.9374 415.897Z" fill="white"/>
<path d="M37.0821 398.367V402.088H39.7865V404.634H37.0821V413.179C37.0821 413.764 37.1954 414.188 37.4219 414.452C37.6579 414.706 38.0732 414.833 38.6679 414.833C39.0644 414.833 39.4655 414.786 39.8715 414.692V417.352C39.088 417.569 38.3328 417.677 37.606 417.677C34.9629 417.677 33.6414 416.219 33.6414 413.306V404.634H31.1211V402.088H33.6414V398.367H37.0821Z" fill="white"/>
<path d="M46.7384 398.367V402.088H49.4429V404.634H46.7384V413.179C46.7384 413.764 46.8517 414.188 47.0783 414.452C47.3143 414.706 47.7296 414.833 48.3242 414.833C48.7208 414.833 49.1219 414.786 49.5278 414.692V417.352C48.7443 417.569 47.9891 417.677 47.2623 417.677C44.6193 417.677 43.2978 416.219 43.2978 413.306V404.634H40.7773V402.088H43.2978V398.367H46.7384Z" fill="white"/>
<path d="M51.0117 409.599C51.0117 408.1 51.3091 406.751 51.9038 405.553C52.4985 404.346 53.3339 403.422 54.4099 402.781C55.4861 402.13 56.7226 401.805 58.1197 401.805C60.1869 401.805 61.8624 402.469 63.1462 403.799C64.4395 405.129 65.138 406.892 65.2418 409.09L65.2559 409.896C65.2559 411.405 64.9633 412.753 64.3781 413.942C63.8023 415.13 62.9715 416.05 61.886 416.701C60.8099 417.352 59.5639 417.677 58.148 417.677C55.9864 417.677 54.2542 416.96 52.9516 415.527C51.6583 414.083 51.0117 412.164 51.0117 409.769V409.599ZM54.4524 409.896C54.4524 411.472 54.7781 412.706 55.4294 413.603C56.0807 414.49 56.987 414.932 58.148 414.932C59.3091 414.932 60.2105 414.479 60.8524 413.574C61.5037 412.669 61.8294 411.344 61.8294 409.599C61.8294 408.053 61.4943 406.826 60.8241 405.921C60.1633 405.016 59.2619 404.563 58.1197 404.563C56.9964 404.563 56.1043 405.011 55.4436 405.907C54.7828 406.794 54.4524 408.124 54.4524 409.896Z" fill="white"/>
<path d="M71.3635 402.088L71.4626 403.855C72.5954 402.488 74.0821 401.805 75.9228 401.805C79.1133 401.805 80.737 403.63 80.7936 407.28V417.394H77.3529V407.477C77.3529 406.506 77.1405 405.789 76.7157 405.327C76.3004 404.855 75.616 404.62 74.6626 404.62C73.275 404.62 72.2414 405.247 71.5618 406.501V417.394H68.1211V402.088H71.3635Z" fill="white"/>
<path d="M95.8439 398.367V402.088H98.5483V404.634H95.8439V413.179C95.8439 413.764 95.9571 414.188 96.1837 414.452C96.4197 414.706 96.8351 414.833 97.4298 414.833C97.8262 414.833 98.2274 414.786 98.6333 414.692V417.352C97.8498 417.569 97.0947 417.677 96.3678 417.677C93.7248 417.677 92.4032 416.219 92.4032 413.306V404.634H89.8828V402.088H92.4032V398.367H95.8439Z" fill="white"/>
<path d="M100.121 409.599C100.121 408.1 100.418 406.751 101.013 405.553C101.608 404.346 102.443 403.422 103.519 402.781C104.595 402.13 105.832 401.805 107.229 401.805C109.297 401.805 110.972 402.469 112.256 403.799C113.549 405.129 114.247 406.892 114.351 409.09L114.365 409.896C114.365 411.405 114.072 412.753 113.487 413.942C112.912 415.13 112.08 416.05 110.995 416.701C109.919 417.352 108.673 417.677 107.257 417.677C105.096 417.677 103.363 416.96 102.061 415.527C100.768 414.083 100.121 412.164 100.121 409.769V409.599ZM103.562 409.896C103.562 411.472 103.887 412.706 104.539 413.603C105.19 414.49 106.096 414.932 107.257 414.932C108.418 414.932 109.32 414.479 109.962 413.574C110.613 412.669 110.939 411.344 110.939 409.599C110.939 408.053 110.603 406.826 109.934 405.921C109.273 405.016 108.371 404.563 107.229 404.563C106.106 404.563 105.214 405.011 104.553 405.907C103.892 406.794 103.562 408.124 103.562 409.896Z" fill="white"/>
<path d="M133.651 417.394C133.499 417.101 133.368 416.625 133.254 415.965C132.159 417.106 130.819 417.677 129.233 417.677C127.695 417.677 126.439 417.238 125.467 416.362C124.494 415.484 124.008 414.4 124.008 413.108C124.008 411.476 124.612 410.227 125.821 409.358C127.039 408.482 128.775 408.043 131.031 408.043H133.141V407.038C133.141 406.247 132.92 405.615 132.476 405.143C132.032 404.662 131.357 404.422 130.45 404.422C129.667 404.422 129.025 404.62 128.525 405.016C128.025 405.402 127.775 405.898 127.775 406.501H124.334C124.334 405.662 124.612 404.879 125.169 404.153C125.727 403.418 126.481 402.842 127.435 402.426C128.398 402.012 129.469 401.805 130.649 401.805C132.442 401.805 133.872 402.257 134.939 403.163C136.005 404.058 136.554 405.322 136.582 406.954V413.858C136.582 415.234 136.775 416.333 137.163 417.153V417.394H133.651ZM129.87 414.918C130.549 414.918 131.187 414.753 131.782 414.423C132.386 414.093 132.839 413.65 133.141 413.093V410.208H131.286C130.012 410.208 129.054 410.429 128.411 410.872C127.77 411.316 127.449 411.943 127.449 412.753C127.449 413.414 127.666 413.942 128.1 414.338C128.544 414.725 129.134 414.918 129.87 414.918Z" fill="white"/>
<path d="M139.539 409.626C139.539 407.268 140.086 405.377 141.181 403.954C142.277 402.519 143.745 401.803 145.585 401.803C147.208 401.803 148.52 402.369 149.521 403.5V395.664H152.962V417.393H149.847L149.678 415.808C148.649 417.053 147.275 417.676 145.557 417.676C143.763 417.676 142.309 416.954 141.196 415.511C140.092 414.068 139.539 412.107 139.539 409.626ZM142.98 409.924C142.98 411.479 143.278 412.696 143.872 413.572C144.476 414.441 145.33 414.874 146.434 414.874C147.841 414.874 148.87 414.247 149.521 412.993V406.458C148.889 405.231 147.87 404.618 146.464 404.618C145.349 404.618 144.49 405.062 143.887 405.948C143.282 406.825 142.98 408.15 142.98 409.924Z" fill="white"/>
<path d="M155.906 409.626C155.906 407.268 156.453 405.377 157.549 403.954C158.643 402.519 160.111 401.803 161.952 401.803C163.576 401.803 164.888 402.369 165.887 403.5V395.664H169.328V417.393H166.213L166.044 415.808C165.015 417.053 163.642 417.676 161.923 417.676C160.13 417.676 158.676 416.954 157.562 415.511C156.458 414.068 155.906 412.107 155.906 409.626ZM159.346 409.924C159.346 411.479 159.644 412.696 160.238 413.572C160.842 414.441 161.697 414.874 162.802 414.874C164.208 414.874 165.237 414.247 165.887 412.993V406.458C165.255 405.231 164.236 404.618 162.83 404.618C161.715 404.618 160.857 405.062 160.253 405.948C159.648 406.825 159.346 408.15 159.346 409.924Z" fill="white"/>
<path d="M189.294 417.394C189.144 417.101 189.011 416.625 188.898 415.965C187.804 417.106 186.462 417.677 184.877 417.677C183.338 417.677 182.082 417.238 181.11 416.362C180.138 415.484 179.652 414.4 179.652 413.108C179.652 411.476 180.256 410.227 181.464 409.358C182.682 408.482 184.419 408.043 186.675 408.043H188.784V407.038C188.784 406.247 188.563 405.615 188.119 405.143C187.676 404.662 187 404.422 186.095 404.422C185.311 404.422 184.669 404.62 184.168 405.016C183.668 405.402 183.418 405.898 183.418 406.501H179.978C179.978 405.662 180.256 404.879 180.813 404.153C181.37 403.418 182.125 402.842 183.079 402.426C184.041 402.012 185.113 401.805 186.293 401.805C188.087 401.805 189.517 402.257 190.583 403.163C191.65 404.058 192.197 405.322 192.225 406.954V413.858C192.225 415.234 192.418 416.333 192.806 417.153V417.394H189.294ZM185.514 414.918C186.194 414.918 186.831 414.753 187.425 414.423C188.029 414.093 188.482 413.65 188.784 413.093V410.208H186.93C185.656 410.208 184.697 410.429 184.056 410.872C183.413 411.316 183.093 411.943 183.093 412.753C183.093 413.414 183.31 413.942 183.744 414.338C184.187 414.725 184.777 414.918 185.514 414.918Z" fill="white"/>
<path d="M216.494 409.894C216.494 412.272 215.961 414.163 214.893 415.568C213.836 416.973 212.378 417.676 210.519 417.676C208.725 417.676 207.329 417.029 206.328 415.737L206.158 417.393H203.043V395.664H206.484V403.558C207.475 402.388 208.81 401.803 210.491 401.803C212.359 401.803 213.827 402.496 214.893 403.883C215.961 405.269 216.494 407.208 216.494 409.697V409.894ZM213.053 409.598C213.053 407.938 212.76 406.693 212.175 405.863C211.59 405.034 210.74 404.618 209.627 404.618C208.135 404.618 207.087 405.269 206.484 406.57V412.88C207.097 414.21 208.154 414.874 209.655 414.874C210.731 414.874 211.562 414.474 212.147 413.672C212.732 412.87 213.034 411.659 213.053 410.036V409.598Z" fill="white"/>
<path d="M218.746 409.599C218.746 408.1 219.043 406.751 219.638 405.553C220.232 404.346 221.068 403.422 222.144 402.781C223.221 402.13 224.456 401.805 225.854 401.805C227.921 401.805 229.597 402.469 230.881 403.799C232.174 405.129 232.873 406.892 232.976 409.09L232.991 409.896C232.991 411.405 232.697 412.753 232.112 413.942C231.537 415.13 230.706 416.05 229.62 416.701C228.544 417.352 227.298 417.677 225.882 417.677C223.72 417.677 221.988 416.96 220.686 415.527C219.392 414.083 218.746 412.164 218.746 409.769V409.599ZM222.187 409.896C222.187 411.472 222.512 412.706 223.163 413.603C223.815 414.49 224.721 414.932 225.882 414.932C227.043 414.932 227.944 414.479 228.587 413.574C229.237 412.669 229.563 411.344 229.563 409.599C229.563 408.053 229.228 406.826 228.558 405.921C227.897 405.016 226.996 404.563 225.854 404.563C224.73 404.563 223.838 405.011 223.178 405.907C222.517 406.794 222.187 408.124 222.187 409.896Z" fill="white"/>
<path d="M240.212 398.367V402.088H242.916V404.634H240.212V413.179C240.212 413.764 240.325 414.188 240.551 414.452C240.787 414.706 241.203 414.833 241.797 414.833C242.193 414.833 242.594 414.786 243.001 414.692V417.352C242.217 417.569 241.462 417.677 240.735 417.677C238.092 417.677 236.771 416.219 236.771 413.306V404.634H234.25V402.088H236.771V398.367H240.212Z" fill="white"/>
<defs>
<filter id="filter0_i" x="116.121" y="353" width="36.3368" height="37.7302" filterUnits="userSpaceOnUse" color-interpolation-filters="sRGB">
<feFlood flood-opacity="0" result="BackgroundImageFix"/>
<feBlend mode="normal" in="SourceGraphic" in2="BackgroundImageFix" result="shape"/>
<feColorMatrix in="SourceAlpha" type="matrix" values="0 0 0 0 0 0 0 0 0 0 0 0 0 0 0 0 0 0 127 0" result="hardAlpha"/>
<feOffset dy="1.42642"/>
<feGaussianBlur stdDeviation="0.713208"/>
<feComposite in2="hardAlpha" operator="arithmetic" k2="-1" k3="1"/>
<feColorMatrix type="matrix" values="0 0 0 0 0 0 0 0 0 0 0 0 0 0 0 0 0 0 0.25 0"/>
<feBlend mode="normal" in2="shape" result="effect1_innerShadow"/>
</filter>
</defs>
</svg>
